<?xml version="1.0" encoding="utf-8"?>
<!-- Generator: Adobe Illustrator 25.2.1, SVG Export Plug-In . SVG Version: 6.00 Build 0)  -->
<svg version="1.1" id="Layer_1" xmlns="http://www.w3.org/2000/svg" xmlns:xlink="http://www.w3.org/1999/xlink" x="0px" y="0px"
	 viewBox="0 0 1728 1296" style="enable-background:new 0 0 1728 1296;" xml:space="preserve">
<style type="text/css">
	.st0{fill:none;stroke:#FF0000;stroke-width:0.072;stroke-linecap:round;stroke-miterlimit:288;}
	.st1{fill:#231F20;stroke:#231F20;stroke-miterlimit:10;}
	.st2{font-family:'MyriadPro-Regular';}
	.st3{font-size:55.901px;}
	.st4{fill:#FFFFFF;stroke:#231F20;stroke-width:0.072;stroke-miterlimit:10;}
</style>
<path id="front_outsideCutPath" vector-effect="non-scaling-stroke" class="st0" d="M92.96,642.64v-8.28h105.48v8.28l0.14,0.22
	h106.56l0.22-0.22v-8.28h105.48v8.28l0.14,0.22h106.56l0.22-0.22v-8.28h105.48v8.28l0.14,0.22h76.32l0.22-0.22v-99.72l-0.22-0.14
	h-8.28V437.29h8.28l0.22-0.22v-99.72l-0.22-0.22h-76.32l-0.14,0.22v8.28H517.76v-8.28l-0.22-0.22H410.99l-0.14,0.22v8.28H305.36
	v-8.28l-0.22-0.22H198.59l-0.14,0.22v8.28H92.89v-8.28l-0.14-0.22H16.43l-0.22,0.22v99.72l0.22,0.22h8.28v105.48h-8.28l-0.22,0.14
	v99.72l0.22,0.22h76.32L92.96,642.64z"/>
<path id="left_outsideCutPath" vector-effect="non-scaling-stroke" class="st0" d="M192.67,979.29v-8.28h105.48v8.28l0.14,0.22
	h106.56l0.22-0.22v-8.28h105.48v8.28l0.14,0.22h93.02l0.22-0.22v-99.14h8.28l0.22-0.22V773.37l-0.22-0.14h-8.28v-99.22l-0.22-0.22
	h-93.02l-0.14,0.22v8.28H405.07v-8.28l-0.22-0.22H298.29l-0.14,0.22v8.28H192.67v-8.28l-0.22-0.22H99.43l-0.22,0.22v99.22h-8.28
	l-0.22,0.14v106.56l0.22,0.22h8.28v99.14l0.22,0.22h93.02L192.67,979.29z"/>
<path id="top_outsideCutPath" vector-effect="non-scaling-stroke" class="st0" d="M1227.24,1087.29v-8.28h105.48v8.28l0.14,0.22
	h106.56l0.22-0.22v-8.28h105.48v8.28l0.14,0.22h106.56l0.22-0.22v-8.28h67.25l0.22-0.22v-92.45h8.28l0.22-0.22V879.57l-0.22-0.14
	h-8.28V773.94h8.28l0.22-0.22V667.17l-0.22-0.22h-8.28V574.5l-0.22-0.22h-67.25v-8.28l-0.22-0.22h-106.56l-0.14,0.22v8.28h-105.48
	v-8.28l-0.22-0.22h-106.56l-0.14,0.22v8.28h-105.48v-8.28l-0.22-0.22h-106.56l-0.14,0.22v8.28H1053l-0.22,0.22v92.45h-8.28
	l-0.22,0.22v106.56l0.22,0.14h8.28v105.55h-8.28l-0.22,0.14v106.56l0.22,0.22h8.28v92.45l0.22,0.22h67.32v8.28l0.14,0.22h106.56
	L1227.24,1087.29z"/>
<path id="back_outsideCutPath" vector-effect="non-scaling-stroke" class="st0" d="M1020.25,631.97h-8.28V526.49h8.28l0.22-0.14
	V419.78l-0.22-0.22h-8.28V314.09h8.28l0.22-0.14V207.38l-0.22-0.22h-8.28V101.69h8.28l0.22-0.14V25.22l-0.22-0.22l-99.72,0
	l-0.14,0.22v8.28l-105.55,0v-8.28l-0.14-0.22l-99.72,0l-0.22,0.22l0,76.32l0.22,0.14h8.28v105.48h-8.28l-0.22,0.22v106.56l0.22,0.14
	h8.28v105.48h-8.28l-0.22,0.22v106.56l0.22,0.14h8.28v105.55h-8.28l-0.22,0.14v76.32l0.22,0.22h99.72l0.14-0.22v-8.28h105.55v8.28
	l0.14,0.22h99.72l0.22-0.22v-76.32L1020.25,631.97z"/>
<path id="right_outsideCutPath" vector-effect="non-scaling-stroke" class="st0" d="M141.24,318.35v-8.28h105.48v8.28l0.14,0.22
	h106.56l0.22-0.22v-8.28h105.48v8.28l0.14,0.22h93.02l0.22-0.22v-99.22h8.28l0.22-0.14V112.43l-0.22-0.14h-8.28V13.07l-0.22-0.22
	h-93.02l-0.14,0.22v8.28H353.64v-8.28l-0.22-0.22H246.87l-0.14,0.22v8.28H141.24v-8.28l-0.22-0.22H48l-0.22,0.22v99.22h-8.28
	l-0.22,0.14v106.56l0.22,0.14h8.28v99.22l0.22,0.22h93.02L141.24,318.35z"/>
<path id="bottom_outsideCutPath" vector-effect="non-scaling-stroke" class="st0" d="M1218.24,534.35v-8.28h105.48v8.28l0.14,0.22
	h106.56l0.22-0.22v-8.28h105.48v8.28l0.14,0.22h106.56l0.22-0.22v-8.28h67.25l0.22-0.22v-92.45h8.28l0.22-0.22V326.63l-0.22-0.22
	h-8.28V220.94h8.28l0.22-0.14V114.23l-0.22-0.14h-8.28V21.57l-0.22-0.22h-67.25v-8.28l-0.22-0.22h-106.56l-0.14,0.22v8.28h-105.48
	v-8.28l-0.22-0.22h-106.56l-0.14,0.22v8.28h-105.48v-8.28l-0.22-0.22h-106.56l-0.14,0.22v8.28H1044l-0.22,0.22v92.45h-8.28
	l-0.22,0.22v106.56l0.22,0.14h8.28v105.48h-8.28l-0.22,0.22v106.56l0.22,0.14h8.28v92.52l0.22,0.22h67.32v8.28l0.14,0.22h106.56
	L1218.24,534.35z"/>
<text transform="matrix(7.699719e-17 1.2575 -1 6.123234e-17 753.9541 50.382)" class="st1 st2 st3">KTGlodowski</text>
<rect x="304.07" y="511.79" class="st4" width="108" height="108"/>
</svg>
